<svg width="720" height="720" viewBox="0 0 720 720" fill="none" xmlns="http://www.w3.org/2000/svg">
<g clip-path="url(#clip0)">
<path d="M556.358 572.728C556.358 554.728 541.631 540 523.631 540H196.359C178.359 540 163.631 554.728 163.631 572.728V654.546H556.358V572.728Z" fill="#576D7E"/>
<path d="M572.712 654.543C580.894 654.543 589.075 662.724 589.075 670.906V703.633C589.075 711.815 580.894 719.996 572.712 719.996H147.257C139.075 719.996 130.894 711.815 130.894 703.633V670.906C130.894 662.724 139.075 654.543 147.257 654.543H572.712Z" fill="#35495C"/>
<path d="M458.159 507.274C448.341 507.274 441.796 500.728 441.796 490.911V436.911C431.978 440.183 420.524 441.82 409.069 441.82H310.887C299.434 441.82 287.978 440.183 278.16 436.911V490.911C278.16 500.73 271.614 507.274 261.797 507.274C251.98 507.274 245.434 513.82 245.434 523.637V540.002H474.524V523.639C474.524 513.82 467.978 507.274 458.159 507.274Z" fill="#F6B545"/>
<path d="M556.348 654.546V572.728C556.348 554.728 541.62 540 523.62 540H441.802V654.546H556.348Z" fill="#35495C"/>
<path d="M425.439 638.182H294.529C276.529 638.182 261.802 623.455 261.802 605.455C261.802 587.455 276.529 572.727 294.529 572.727H425.439C443.439 572.727 458.166 587.455 458.166 605.455C458.166 623.455 443.439 638.182 425.439 638.182Z" fill="#FFCB5B"/>
<path d="M376.386 638.22H343.659L376.386 572.766H409.113L376.386 638.22Z" fill="#F6B545"/>
<path d="M458.206 605.455C458.206 587.455 443.479 572.727 425.479 572.727L392.751 638.181H425.479C443.479 638.182 458.206 623.455 458.206 605.455Z" fill="#F6B545"/>
<path d="M572.725 654.543H458.179V670.906C458.179 688.906 443.451 703.633 425.451 703.633H163.634C153.816 703.633 147.271 697.087 147.271 687.27V654.543C137.453 654.543 130.908 661.089 130.908 670.906V703.633C130.908 711.815 137.454 719.996 147.271 719.996H359.997H572.725C580.907 719.996 589.088 711.815 589.088 703.633V670.906C589.088 662.724 580.907 654.543 572.725 654.543Z" fill="#123247"/>
<path d="M212.734 360.004H175.097C153.825 360.004 132.551 351.823 117.824 335.458L90.0061 307.641C73.6429 292.914 65.46 273.278 65.46 250.369V147.278C65.46 119.46 86.7323 98.1875 114.551 98.1875H196.369C206.188 98.1875 212.732 104.734 212.732 114.551C212.732 124.369 206.186 130.914 196.369 130.914H114.552C104.734 130.914 98.189 137.46 98.189 147.277V250.368C98.189 263.458 103.098 276.549 112.917 284.731L140.735 312.549C150.554 322.368 162.007 327.277 175.098 327.277H212.735C222.554 327.277 229.098 333.823 229.098 343.64C229.097 353.458 222.552 360.004 212.734 360.004Z" fill="#F6B545"/>
<path d="M81.7967 155.451V220.905C81.7967 225.814 78.5244 229.087 73.6152 229.087C68.7059 229.087 65.4336 225.814 65.4336 220.905V155.451C65.4336 150.542 68.7059 147.27 73.6152 147.27C78.5244 147.27 81.7967 150.543 81.7967 155.451Z" fill="#FFCA5D"/>
<path d="M544.894 360.004H507.257C497.438 360.004 490.894 353.458 490.894 343.641C490.894 333.822 497.44 327.277 507.257 327.277H544.894C557.984 327.277 571.075 322.368 579.257 312.55L607.075 284.731C616.894 274.913 621.803 263.459 621.803 250.368V147.277C621.803 137.459 615.257 130.914 605.44 130.914H523.621C513.803 130.914 507.258 124.368 507.258 114.551C507.258 104.733 513.804 98.188 523.621 98.188H605.44C633.258 98.188 654.531 119.46 654.531 147.279V250.37C654.531 271.642 646.349 292.916 629.984 307.642L602.166 335.46C587.438 351.822 567.803 360.004 544.894 360.004Z" fill="#F6B545"/>
<path d="M556.348 325.638C553.075 325.638 549.801 327.275 544.894 327.275H507.257C497.438 327.275 490.894 333.821 490.894 343.638C490.894 353.456 497.44 360.001 507.257 360.001H544.894C546.531 360.001 548.166 360.001 551.44 360.001C554.712 348.547 556.348 338.728 556.348 325.638Z" fill="#F19920"/>
<path d="M507.234 114.549C507.234 124.367 513.78 130.912 523.598 130.912H556.325V98.1841H523.598C513.78 98.1841 507.234 104.73 507.234 114.549Z" fill="#F19920"/>
<path d="M409.069 441.822H310.887C247.069 441.822 196.341 391.094 196.341 327.275V65.457H523.614V327.275C523.615 391.094 472.887 441.822 409.069 441.822Z" fill="#FFCA5D"/>
<path d="M458.171 507.274C449.989 507.274 441.808 499.093 441.808 490.911V453.274V440.183V436.911C431.989 440.183 420.535 441.82 409.08 441.82H310.899C299.445 441.82 287.989 440.183 278.171 436.911V453.274C287.989 456.547 299.443 458.183 310.899 458.183H359.989C377.989 458.183 392.717 472.911 392.717 490.911C392.717 499.093 399.263 507.274 409.08 507.274C418.899 507.274 425.443 513.82 425.443 523.637V540.002H441.806H474.534V523.639C474.535 513.82 466.352 507.274 458.171 507.274Z" fill="#F19920"/>
<path d="M654.519 155.451V220.905C654.519 225.814 651.247 229.087 646.338 229.087C641.429 229.087 638.156 225.814 638.156 220.905V155.451C638.156 150.542 641.429 147.27 646.338 147.27C651.246 147.27 654.519 150.543 654.519 155.451Z" fill="#F19920"/>
<path d="M196.354 65.4541V81.8172H425.444C443.444 81.8172 458.172 96.5449 458.172 114.545V327.273C458.172 391.091 423.809 441.819 359.99 441.819H409.081C472.899 441.819 523.627 391.091 523.627 327.273V65.4541H196.354Z" fill="#F6B545"/>
<path d="M523.632 65.4167H196.359C178.359 65.4167 163.631 50.6891 163.631 32.6891C163.631 14.6891 178.359 -0.0385742 196.359 -0.0385742H523.631C541.631 -0.0385742 556.358 14.6891 556.358 32.6891C556.358 50.6905 541.632 65.4167 523.632 65.4167Z" fill="#F6B545"/>
<path d="M523.659 0C523.659 18 508.931 32.7277 490.931 32.7277H163.659C163.659 50.7277 178.387 65.4553 196.387 65.4553H522.022C538.385 65.4553 553.113 54.0014 556.385 37.6369C559.659 18 543.295 0 523.659 0Z" fill="#F19920"/>
<path d="M397.631 294.549H395.994L359.994 274.912L323.994 294.549C322.357 294.549 320.722 294.549 319.085 294.549C317.448 292.912 317.448 291.277 317.448 289.64L323.994 247.094L294.54 217.64C294.54 216.003 294.54 214.368 294.54 212.731C294.54 211.094 296.177 209.458 297.812 209.458L338.721 202.912L356.721 165.276C356.721 163.639 358.358 163.639 359.994 163.639C361.631 163.639 363.266 165.276 363.266 165.276L381.266 202.912L422.175 209.458C423.812 209.458 425.448 211.095 425.448 212.731C425.448 214.366 425.448 216.003 423.811 217.64L394.357 247.094L400.903 289.64C400.903 291.277 400.903 292.912 399.266 294.549C399.266 294.549 399.266 294.549 397.631 294.549Z" fill="#F19920"/>
<path d="M245.47 245.451C235.651 245.451 229.106 238.905 229.106 229.088V130.906C229.106 121.088 235.653 114.543 245.47 114.543C255.288 114.543 261.833 121.089 261.833 130.906V229.088C261.834 238.906 255.288 245.451 245.47 245.451Z" fill="#FFE27A"/>
<path d="M245.47 294.542C254.507 294.542 261.833 287.216 261.833 278.179C261.833 269.142 254.507 261.816 245.47 261.816C236.432 261.816 229.106 269.142 229.106 278.179C229.106 287.216 236.432 294.542 245.47 294.542Z" fill="#FFE27A"/>
<path d="M196.358 540C178.358 540 163.631 554.728 163.631 572.728V654.546H196.358V540Z" fill="#35495C"/>
</g>
<defs>
<clipPath id="clip0">
<rect width="720" height="720" fill="white"/>
</clipPath>
</defs>
</svg>
